<mxfile host="app.diagrams.net" modified="2021-11-15T14:20:28.536Z" agent="5.0 (Windows NT 10.0; Win64; x64) AppleWebKit/537.36 (KHTML, like Gecko) Chrome/95.0.4638.69 Safari/537.36 Edg/95.0.1020.53" etag="lEGuIPXY-DEOcI8clcyc" version="15.7.3" type="github">
  <diagram id="jGqqvHt4Dbq2onrs1CLa" name="Page-1">
    <mxGraphModel dx="1422" dy="2994" grid="1" gridSize="10" guides="1" tooltips="1" connect="1" arrows="1" fold="1" page="1" pageScale="1" pageWidth="850" pageHeight="1100" math="0" shadow="0">
      <root>
        <mxCell id="0" />
        <mxCell id="1" parent="0" />
        <mxCell id="BuZE7lFF6ppzY9cjOmKL-1" value="" style="strokeWidth=1;shadow=0;dashed=0;align=center;html=1;shape=mxgraph.mockup.containers.browserWindow;rSize=0;strokeColor=#666666;strokeColor2=#008cff;strokeColor3=#c4c4c4;mainText=,;recursiveResize=0;" vertex="1" parent="1">
          <mxGeometry y="-2200" width="850" height="1100" as="geometry" />
        </mxCell>
        <mxCell id="BuZE7lFF6ppzY9cjOmKL-2" value="Page 1" style="strokeWidth=1;shadow=0;dashed=0;align=center;html=1;shape=mxgraph.mockup.containers.anchor;fontSize=17;fontColor=#666666;align=left;" vertex="1" parent="BuZE7lFF6ppzY9cjOmKL-1">
          <mxGeometry x="60" y="12" width="110" height="26" as="geometry" />
        </mxCell>
        <mxCell id="BuZE7lFF6ppzY9cjOmKL-3" value="https://www.draw.io" style="strokeWidth=1;shadow=0;dashed=0;align=center;html=1;shape=mxgraph.mockup.containers.anchor;rSize=0;fontSize=17;fontColor=#666666;align=left;" vertex="1" parent="BuZE7lFF6ppzY9cjOmKL-1">
          <mxGeometry x="130" y="60" width="250" height="26" as="geometry" />
        </mxCell>
        <mxCell id="BuZE7lFF6ppzY9cjOmKL-6" value="Character:" style="strokeWidth=1;shadow=0;dashed=0;align=center;html=1;shape=mxgraph.mockup.text.textBox;fontColor=#666666;align=left;fontSize=17;spacingLeft=4;spacingTop=-3;strokeColor=#666666;mainText=;fontStyle=1" vertex="1" parent="BuZE7lFF6ppzY9cjOmKL-1">
          <mxGeometry x="180" y="220" width="110" height="50" as="geometry" />
        </mxCell>
        <mxCell id="BuZE7lFF6ppzY9cjOmKL-7" value="Search" style="strokeWidth=1;shadow=0;dashed=0;align=center;html=1;shape=mxgraph.mockup.forms.searchBox;strokeColor=#999999;mainText=;strokeColor2=#008cff;fontColor=#666666;fontSize=17;align=left;spacingLeft=3;" vertex="1" parent="BuZE7lFF6ppzY9cjOmKL-1">
          <mxGeometry x="325" y="220" width="200" height="50" as="geometry" />
        </mxCell>
        <mxCell id="BuZE7lFF6ppzY9cjOmKL-9" value="Harry Potter Characters" style="text;strokeColor=none;fillColor=none;html=1;fontSize=24;fontStyle=1;verticalAlign=middle;align=center;" vertex="1" parent="BuZE7lFF6ppzY9cjOmKL-1">
          <mxGeometry x="380" y="140" width="100" height="40" as="geometry" />
        </mxCell>
        <mxCell id="BuZE7lFF6ppzY9cjOmKL-11" value="Accio!" style="strokeWidth=1;shadow=0;dashed=0;align=center;html=1;shape=mxgraph.mockup.buttons.button;strokeColor=#666666;fontColor=#ffffff;mainText=;buttonStyle=round;fontSize=17;fontStyle=1;fillColor=#008cff;whiteSpace=wrap;" vertex="1" parent="BuZE7lFF6ppzY9cjOmKL-1">
          <mxGeometry x="560" y="220" width="150" height="50" as="geometry" />
        </mxCell>
        <mxCell id="BuZE7lFF6ppzY9cjOmKL-12" value="Character Name" style="swimlane;childLayout=stackLayout;horizontal=1;startSize=30;horizontalStack=0;rounded=1;fontSize=14;fontStyle=0;strokeWidth=2;resizeParent=0;resizeLast=1;shadow=0;dashed=0;align=center;" vertex="1" parent="BuZE7lFF6ppzY9cjOmKL-1">
          <mxGeometry x="120" y="310" width="170" height="210" as="geometry" />
        </mxCell>
        <mxCell id="BuZE7lFF6ppzY9cjOmKL-18" value="" style="verticalLabelPosition=bottom;shadow=0;dashed=0;align=center;html=1;verticalAlign=top;strokeWidth=1;shape=mxgraph.mockup.containers.userMale;strokeColor=#666666;strokeColor2=#008cff;fontSize=18;" vertex="1" parent="BuZE7lFF6ppzY9cjOmKL-12">
          <mxGeometry y="30" width="170" height="180" as="geometry" />
        </mxCell>
        <mxCell id="BuZE7lFF6ppzY9cjOmKL-19" value="Character Name" style="swimlane;childLayout=stackLayout;horizontal=1;startSize=30;horizontalStack=0;rounded=1;fontSize=14;fontStyle=0;strokeWidth=2;resizeParent=0;resizeLast=1;shadow=0;dashed=0;align=center;" vertex="1" parent="BuZE7lFF6ppzY9cjOmKL-1">
          <mxGeometry x="540" y="570" width="170" height="210" as="geometry" />
        </mxCell>
        <mxCell id="BuZE7lFF6ppzY9cjOmKL-30" value="" style="verticalLabelPosition=bottom;shadow=0;dashed=0;align=center;html=1;verticalAlign=top;strokeWidth=1;shape=mxgraph.mockup.containers.userMale;strokeColor=#666666;strokeColor2=#008cff;fontSize=18;" vertex="1" parent="BuZE7lFF6ppzY9cjOmKL-19">
          <mxGeometry y="30" width="170" height="180" as="geometry" />
        </mxCell>
        <mxCell id="BuZE7lFF6ppzY9cjOmKL-22" value="Character Name" style="swimlane;childLayout=stackLayout;horizontal=1;startSize=30;horizontalStack=0;rounded=1;fontSize=14;fontStyle=0;strokeWidth=2;resizeParent=0;resizeLast=1;shadow=0;dashed=0;align=center;" vertex="1" parent="BuZE7lFF6ppzY9cjOmKL-1">
          <mxGeometry x="540" y="310" width="170" height="210" as="geometry" />
        </mxCell>
        <mxCell id="BuZE7lFF6ppzY9cjOmKL-24" value="" style="verticalLabelPosition=bottom;shadow=0;dashed=0;align=center;html=1;verticalAlign=top;strokeWidth=1;shape=mxgraph.mockup.containers.userMale;strokeColor=#666666;strokeColor2=#008cff;fontSize=18;" vertex="1" parent="BuZE7lFF6ppzY9cjOmKL-22">
          <mxGeometry y="30" width="170" height="180" as="geometry" />
        </mxCell>
        <mxCell id="BuZE7lFF6ppzY9cjOmKL-29" value="Character Name" style="swimlane;childLayout=stackLayout;horizontal=1;startSize=30;horizontalStack=0;rounded=1;fontSize=14;fontStyle=0;strokeWidth=2;resizeParent=0;resizeLast=1;shadow=0;dashed=0;align=center;" vertex="1" parent="BuZE7lFF6ppzY9cjOmKL-1">
          <mxGeometry x="120" y="570" width="170" height="210" as="geometry" />
        </mxCell>
        <mxCell id="BuZE7lFF6ppzY9cjOmKL-21" value="" style="verticalLabelPosition=bottom;shadow=0;dashed=0;align=center;html=1;verticalAlign=top;strokeWidth=1;shape=mxgraph.mockup.containers.userMale;strokeColor=#666666;strokeColor2=#008cff;fontSize=18;" vertex="1" parent="BuZE7lFF6ppzY9cjOmKL-29">
          <mxGeometry y="30" width="170" height="180" as="geometry" />
        </mxCell>
        <mxCell id="BuZE7lFF6ppzY9cjOmKL-27" value="Character Name" style="swimlane;childLayout=stackLayout;horizontal=1;startSize=30;horizontalStack=0;rounded=1;fontSize=14;fontStyle=0;strokeWidth=2;resizeParent=0;resizeLast=1;shadow=0;dashed=0;align=center;" vertex="1" parent="BuZE7lFF6ppzY9cjOmKL-1">
          <mxGeometry x="325" y="570" width="170" height="210" as="geometry" />
        </mxCell>
        <mxCell id="BuZE7lFF6ppzY9cjOmKL-28" value="" style="verticalLabelPosition=bottom;shadow=0;dashed=0;align=center;html=1;verticalAlign=top;strokeWidth=1;shape=mxgraph.mockup.containers.userMale;strokeColor=#666666;strokeColor2=#008cff;fontSize=18;" vertex="1" parent="BuZE7lFF6ppzY9cjOmKL-27">
          <mxGeometry y="30" width="170" height="180" as="geometry" />
        </mxCell>
        <mxCell id="BuZE7lFF6ppzY9cjOmKL-25" value="Character Name" style="swimlane;childLayout=stackLayout;horizontal=1;startSize=30;horizontalStack=0;rounded=1;fontSize=14;fontStyle=0;strokeWidth=2;resizeParent=0;resizeLast=1;shadow=0;dashed=0;align=center;" vertex="1" parent="BuZE7lFF6ppzY9cjOmKL-1">
          <mxGeometry x="325" y="310" width="170" height="210" as="geometry" />
        </mxCell>
        <mxCell id="BuZE7lFF6ppzY9cjOmKL-26" value="" style="verticalLabelPosition=bottom;shadow=0;dashed=0;align=center;html=1;verticalAlign=top;strokeWidth=1;shape=mxgraph.mockup.containers.userMale;strokeColor=#666666;strokeColor2=#008cff;fontSize=18;" vertex="1" parent="BuZE7lFF6ppzY9cjOmKL-25">
          <mxGeometry y="30" width="170" height="180" as="geometry" />
        </mxCell>
        <mxCell id="BuZE7lFF6ppzY9cjOmKL-31" value="Character Name" style="swimlane;childLayout=stackLayout;horizontal=1;startSize=30;horizontalStack=0;rounded=1;fontSize=14;fontStyle=0;strokeWidth=2;resizeParent=0;resizeLast=1;shadow=0;dashed=0;align=center;" vertex="1" parent="BuZE7lFF6ppzY9cjOmKL-1">
          <mxGeometry x="120" y="820" width="170" height="210" as="geometry" />
        </mxCell>
        <mxCell id="BuZE7lFF6ppzY9cjOmKL-32" value="" style="verticalLabelPosition=bottom;shadow=0;dashed=0;align=center;html=1;verticalAlign=top;strokeWidth=1;shape=mxgraph.mockup.containers.userMale;strokeColor=#666666;strokeColor2=#008cff;fontSize=18;" vertex="1" parent="BuZE7lFF6ppzY9cjOmKL-31">
          <mxGeometry y="30" width="170" height="180" as="geometry" />
        </mxCell>
        <mxCell id="BuZE7lFF6ppzY9cjOmKL-33" value="Character Name" style="swimlane;childLayout=stackLayout;horizontal=1;startSize=30;horizontalStack=0;rounded=1;fontSize=14;fontStyle=0;strokeWidth=2;resizeParent=0;resizeLast=1;shadow=0;dashed=0;align=center;" vertex="1" parent="BuZE7lFF6ppzY9cjOmKL-1">
          <mxGeometry x="325" y="820" width="170" height="210" as="geometry" />
        </mxCell>
        <mxCell id="BuZE7lFF6ppzY9cjOmKL-34" value="" style="verticalLabelPosition=bottom;shadow=0;dashed=0;align=center;html=1;verticalAlign=top;strokeWidth=1;shape=mxgraph.mockup.containers.userMale;strokeColor=#666666;strokeColor2=#008cff;fontSize=18;" vertex="1" parent="BuZE7lFF6ppzY9cjOmKL-33">
          <mxGeometry y="30" width="170" height="180" as="geometry" />
        </mxCell>
        <mxCell id="BuZE7lFF6ppzY9cjOmKL-35" value="Character Name" style="swimlane;childLayout=stackLayout;horizontal=1;startSize=30;horizontalStack=0;rounded=1;fontSize=14;fontStyle=0;strokeWidth=2;resizeParent=0;resizeLast=1;shadow=0;dashed=0;align=center;" vertex="1" parent="BuZE7lFF6ppzY9cjOmKL-1">
          <mxGeometry x="540" y="820" width="170" height="210" as="geometry" />
        </mxCell>
        <mxCell id="BuZE7lFF6ppzY9cjOmKL-36" value="" style="verticalLabelPosition=bottom;shadow=0;dashed=0;align=center;html=1;verticalAlign=top;strokeWidth=1;shape=mxgraph.mockup.containers.userMale;strokeColor=#666666;strokeColor2=#008cff;fontSize=18;" vertex="1" parent="BuZE7lFF6ppzY9cjOmKL-35">
          <mxGeometry y="30" width="170" height="180" as="geometry" />
        </mxCell>
      </root>
    </mxGraphModel>
  </diagram>
</mxfile>
